<?xml version="1.0" encoding="UTF-8" standalone="no"?>
<svg
   width="16"
   version="1.1"
   id="svg7384"
   height="16"
   xmlns="http://www.w3.org/2000/svg"
   xmlns:svg="http://www.w3.org/2000/svg"
   xmlns:rdf="http://www.w3.org/1999/02/22-rdf-syntax-ns#"
   xmlns:cc="http://creativecommons.org/ns#"
   xmlns:dc="http://purl.org/dc/elements/1.1/">
  <metadata
     id="metadata90">
    <rdf:RDF>
      <cc:Work
         rdf:about="">
        <dc:format>image/svg+xml</dc:format>
        <dc:type
           rdf:resource="http://purl.org/dc/dcmitype/StillImage" />
        <dc:title>elementary Symbolic Icon Theme</dc:title>
      </cc:Work>
    </rdf:RDF>
  </metadata>
  <title
     id="title9167">elementary Symbolic Icon Theme</title>
  <defs
     id="defs7386" />
  <path
     id="path37"
     d="M 8,1 Z"
     style="color:#000000;clip-rule:nonzero;display:inline;overflow:visible;visibility:visible;opacity:1;isolation:auto;mix-blend-mode:normal;color-interpolation:sRGB;color-interpolation-filters:linearRGB;solid-color:#000000;solid-opacity:1;fill:#333333;fill-opacity:1;fill-rule:nonzero;stroke:none;stroke-width:1;stroke-linecap:butt;stroke-linejoin:miter;stroke-miterlimit:4;stroke-dasharray:none;stroke-dashoffset:0;stroke-opacity:1;marker:none;color-rendering:auto;image-rendering:auto;shape-rendering:auto;text-rendering:auto;enable-background:accumulate" />
  <path
     id="path35"
     d="M 7,1 V 4 H 8 V 2 c 3.313708,0 6,2.6862915 6,6 0,3.313708 -2.686292,6 -6,6 C 4.6862915,14 2,11.313708 2,8 2.0024366,6.6511462 2.4593069,5.3424605 3.296875,4.2851562 L 2.4238281,3.7792969 C 1.5023033,4.9936315 1.0023721,6.4755949 1,8 c 0,3.865993 3.1340068,7 7,7 3.865993,0 7,-3.134007 7,-7 C 15,4.1340068 11.865993,1 8,1 Z M 4.1953125,5 7.2050781,8.6054688 C 7.3939924,8.8537906 7.6879867,8.9997044 8,9 8.5522847,9 9,8.5522847 9,8 8.9993115,7.6203304 8.7836748,7.2737983 8.4433594,7.1054688 7.0459237,6.4030666 4.1953125,5 4.1953125,5 Z"
     style="color:#000000;clip-rule:nonzero;display:inline;overflow:visible;visibility:visible;opacity:1;isolation:auto;mix-blend-mode:normal;color-interpolation:sRGB;color-interpolation-filters:linearRGB;solid-color:#000000;solid-opacity:1;fill:#333333;fill-opacity:1;fill-rule:nonzero;stroke:none;stroke-width:1;stroke-linecap:butt;stroke-linejoin:miter;stroke-miterlimit:4;stroke-dasharray:none;stroke-dashoffset:0;stroke-opacity:1;marker:none;color-rendering:auto;image-rendering:auto;shape-rendering:auto;text-rendering:auto;enable-background:accumulate" />
  <g
     transform="translate(-856.487,-208.48659)"
     style="display:inline"
     label="status"
     id="layer9" />
  <g
     transform="translate(-856.487,-208.48659)"
     style="display:inline"
     id="layer10" />
  <g
     transform="translate(-856.487,-208.48659)"
     style="display:inline"
     id="layer13" />
  <g
     transform="translate(-856.487,-208.48659)"
     id="layer14" />
  <g
     transform="translate(-856.487,-208.48659)"
     style="display:inline"
     id="layer15" />
  <g
     transform="translate(-856.487,-208.48659)"
     style="display:inline"
     id="g71291" />
</svg>
