<?xml version="1.0" encoding="UTF-8"?>
<svg width="16" height="16" version="1.1" xmlns="http://www.w3.org/2000/svg">
 <path d="m3 3c-1.108 0-2 0.892-2 2v6c0 1.108 0.892 2 2 2h6c1.108 0 2-0.892 2-2v-1.3047l2.7539 2.5781c0.13042 0.13924 0.32032 0.22656 0.5332 0.22656 0.39499 0 0.71289-0.30167 0.71289-0.67578v-7.6484c0-0.37411-0.3179-0.67578-0.71289-0.67578-0.21289 0-0.40278 0.087323-0.5332 0.22656l-2.7539 2.5918v-1.3184c0-1.108-0.892-2-2-2h-6z" fill="#555761" stroke-linecap="round" style="-inkscape-stroke:none"/>
</svg>
